HIERARCHY
ROOT joint_Root
{
	OFFSET 0.0 0.0 0.0
	CHANNELS 6 Xposition Yposition Zposition Zrotation Xrotation Yrotation 
	JOINT Hips
	{
		OFFSET 4.5925 91.4895 -427.239
		CHANNELS 6 Xposition Yposition Zposition Zrotation Xrotation Yrotation 
		JOINT Spine
		{
			OFFSET 15.7357 0.0 0.0
			CHANNELS 6 Xposition Yposition Zposition Zrotation Xrotation Yrotation 
			JOINT Chest
			{
				OFFSET 8.98455 -0.406207 0.0
				CHANNELS 6 Xposition Yposition Zposition Zrotation Xrotation Yrotation 
				JOINT Neck
				{
					OFFSET 16.3773 0.0 0.0
					CHANNELS 6 Xposition Yposition Zposition Zrotation Xrotation Yrotation 
					JOINT Head
					{
						OFFSET 6.45672 0.0 0.0
						CHANNELS 6 Xposition Yposition Zposition Zrotation Xrotation Yrotation 
						End Site
						{
							OFFSET 0.0 0.0 0.0
						}
					}
				}
				JOINT Shoulder_L
				{
					OFFSET 12.9942 -0.242716 4.98039
					CHANNELS 6 Xposition Yposition Zposition Zrotation Xrotation Yrotation 
					JOINT UpperArm_L
					{
						OFFSET 5.34809 0.0 0.0
						CHANNELS 6 Xposition Yposition Zposition Zrotation Xrotation Yrotation 
						JOINT LowerArm_L
						{
							OFFSET 24.3286 1.87007e-05 0.0
							CHANNELS 6 Xposition Yposition Zposition Zrotation Xrotation Yrotation 
							JOINT Hand_L
							{
								OFFSET 22.2916 0.0 0.0
								CHANNELS 6 Xposition Yposition Zposition Zrotation Xrotation Yrotation 
								End Site
								{
									OFFSET 0.0 0.0 0.0
								}
							}
						}
					}
				}
				JOINT Shoulder_R
				{
					OFFSET 12.9945 -0.242716 -4.98039
					CHANNELS 6 Xposition Yposition Zposition Zrotation Xrotation Yrotation 
					JOINT UpperArm_R
					{
						OFFSET -5.34813 0.0 0.0
						CHANNELS 6 Xposition Yposition Zposition Zrotation Xrotation Yrotation 
						JOINT LowerArm_R
						{
							OFFSET -24.3289 0.000322201 0.0
							CHANNELS 6 Xposition Yposition Zposition Zrotation Xrotation Yrotation 
							JOINT Hand_R
							{
								OFFSET -22.2915 -0.000108084 0.0
								CHANNELS 6 Xposition Yposition Zposition Zrotation Xrotation Yrotation 
								End Site
								{
									OFFSET 0.0 0.0 0.0
								}
							}
						}
					}
				}
			}
		}
		JOINT UpperLeg_L
		{
			OFFSET -2.19248 -6.46944 0.0
			CHANNELS 6 Xposition Yposition Zposition Zrotation Xrotation Yrotation 
			JOINT LowerLeg_L
			{
				OFFSET 39.0811 0.0 -1.23785e-05
				CHANNELS 6 Xposition Yposition Zposition Zrotation Xrotation Yrotation 
				JOINT Foot_L
				{
					OFFSET 40.9854 0.0 -1.26872e-05
					CHANNELS 6 Xposition Yposition Zposition Zrotation Xrotation Yrotation 
					JOINT Toes_L
					{
						OFFSET 11.7543 0.0 0.0
						CHANNELS 6 Xposition Yposition Zposition Zrotation Xrotation Yrotation 
						End Site
						{
							OFFSET 0.0 0.0 0.0
						}
					}
				}
			}
		}
		JOINT UpperLeg_R
		{
			OFFSET -2.19251 6.46944 0.0
			CHANNELS 6 Xposition Yposition Zposition Zrotation Xrotation Yrotation 
			JOINT LowerLeg_R
			{
				OFFSET -39.0811 -0.00228153 -0.0401928
				CHANNELS 6 Xposition Yposition Zposition Zrotation Xrotation Yrotation 
				JOINT Foot_R
				{
					OFFSET -40.9854 0.0 0.0
					CHANNELS 6 Xposition Yposition Zposition Zrotation Xrotation Yrotation 
					JOINT Toes_R
					{
						OFFSET -11.7543 0.0 0.0
						CHANNELS 6 Xposition Yposition Zposition Zrotation Xrotation Yrotation 
						End Site
						{
							OFFSET 0.0 0.0 0.0
						}
					}
				}
			}
		}
	}
}
MOTION
Frames:	4
Frame Time:	0.0333333
0.000000 0.000000 0.000000 0.000000 0.000000 -0.000000 -1.687270 87.004800 -467.041000 89.312700 0.424820 0.483144 15.735700 0.000005 -0.000001 84.278000 83.492300 -83.724100 8.984550 -0.406207 -0.000000 5.192130 -1.307340 1.165870 16.377300 -0.000001 -0.000001 -2.411220 -2.950290 0.039004 6.456720 -0.000001 -0.000000 -2.460470 -2.936170 0.599560 12.994200 -0.242716 4.980390 -90.858300 3.784710 -77.213900 5.348090 -0.000007 -0.000001 -64.758600 19.121700 -14.557000 24.328600 0.000019 0.000005 3.397370 0.524927 -81.207500 22.291600 -0.000001 0.000005 13.832600 5.472900 -5.479070 12.994500 -0.242716 -4.980390 88.451900 11.288300 -82.138700 -5.348130 -0.000001 -0.000004 -57.941300 19.434900 -9.297880 -24.328900 0.000322 -0.000009 -20.412900 -0.566449 -88.477300 -22.291500 -0.000108 -0.000004 29.250300 5.616860 -12.407800 -2.192480 -6.469440 -0.000000 -175.119000 -4.882280 -20.300000 39.081100 -0.000007 -0.000012 0.078615 -0.020827 75.156900 40.985400 -0.000006 -0.000013 3.318530 1.124000 -59.573300 11.754300 -0.000000 0.000003 -0.004382 -0.055362 -18.829000 -2.192510 6.469440 -0.000001 -175.898000 15.683000 155.463000 -39.081100 -0.002282 -0.040193 0.049946 -0.041874 48.113900 -40.985400 0.000008 0.000006 9.104250 -2.590090 -74.111000 -11.754300 -0.000006 -0.000006 -0.002783 -0.038123 -18.123500
0.000000 0.000000 0.000000 0.000000 0.000000 -0.000000 -1.867940 86.559700 -463.601000 89.529700 0.078164 0.724641 15.735700 0.000005 -0.000001 86.567100 83.393800 -86.029500 8.984550 -0.406207 -0.000000 5.427020 -0.800306 1.111960 16.377300 -0.000001 -0.000001 -2.321520 -2.779200 0.356152 6.456720 -0.000001 -0.000000 -2.308310 -2.929790 0.269332 12.994200 -0.242716 4.980390 -91.145400 4.885540 -76.789400 5.348090 -0.000007 -0.000001 -65.178900 20.824200 -6.415380 24.328600 0.000019 0.000005 2.931700 0.636867 -77.770500 22.291600 -0.000001 0.000005 13.818700 5.472980 -5.483010 12.994500 -0.242716 -4.980390 88.572100 11.666200 -82.972700 -5.348130 -0.000001 -0.000004 -53.451000 16.338000 -21.011400 -24.328900 0.000322 -0.000009 -20.499500 -0.728465 -88.051400 -22.291500 -0.000108 -0.000004 29.972000 5.616340 -12.372200 -2.192480 -6.469440 -0.000000 -175.777000 -5.059360 -24.667000 39.081100 -0.000007 -0.000012 0.066557 -0.015357 77.001800 40.985400 -0.000006 -0.000013 3.232420 1.005480 -62.482600 11.754300 -0.000000 0.000003 -0.004142 -0.052918 -18.729400 -2.192510 6.469440 -0.000001 -176.818000 16.648900 157.570000 -39.081100 -0.002282 -0.040193 0.053794 -0.042702 49.808300 -40.985400 0.000008 0.000006 9.081830 -1.673790 -77.112500 -11.754300 -0.000006 -0.000006 -0.138972 -0.180611 -17.283000
0.000000 0.000000 0.000000 0.000000 0.000000 -0.000000 -1.873730 86.683500 -460.222000 89.823100 -1.106020 0.480537 15.735700 0.000005 -0.000001 90.745800 83.421300 -90.356000 8.984550 -0.406207 -0.000000 5.389740 0.162788 0.770939 16.377300 -0.000001 -0.000001 -2.386100 -2.571210 0.730892 6.456720 -0.000001 -0.000000 -2.325200 -3.084640 0.276669 12.994200 -0.242716 4.980390 -91.204500 4.868590 -76.085500 5.348090 -0.000007 -0.000001 -67.230100 21.739400 2.399350 24.328600 0.000019 0.000005 4.890820 1.295260 -75.206400 22.291600 -0.000001 0.000005 13.352500 5.474060 -5.523010 12.994500 -0.242716 -4.980390 88.896100 10.751300 -84.103300 -5.348130 -0.000001 -0.000004 -52.427800 12.624800 -30.432300 -24.328900 0.000322 -0.000009 -20.386100 -1.220010 -86.720000 -22.291500 -0.000108 -0.000004 29.547400 5.612110 -12.094400 -2.192480 -6.469440 -0.000000 -176.868000 -6.563430 -28.171600 39.081100 -0.000007 -0.000012 0.060797 -0.017529 73.911000 40.985400 -0.000006 -0.000013 3.275790 1.021440 -64.915200 11.754300 -0.000000 0.000003 -0.003765 -0.048977 -18.568900 -2.192510 6.469440 -0.000001 -177.974000 17.026500 160.243000 -39.081100 -0.002282 -0.040193 0.045264 -0.036234 49.224500 -40.985400 0.000008 0.000006 8.876080 -0.201034 -78.706400 -11.754300 -0.000006 -0.000006 -0.802306 -0.982721 -17.473200
0.000000 0.000000 0.000000 0.000000 0.000000 -0.000000 -1.776590 87.377300 -456.749000 90.202200 -2.244220 0.054696 15.735700 0.000005 -0.000001 95.953500 83.498000 -95.798000 8.984550 -0.406207 -0.000000 5.167190 1.342410 0.249943 16.377300 -0.000001 -0.000001 -2.514870 -2.650690 1.144410 6.456720 -0.000001 -0.000000 -2.442870 -3.675380 0.345073 12.994200 -0.242716 4.980390 -91.184700 4.541110 -75.361400 5.348090 -0.000007 -0.000001 -69.357900 22.738500 10.630700 24.328600 0.000019 0.000005 4.481330 1.344200 -73.333900 22.291600 -0.000001 0.000005 12.025000 5.479030 -5.712200 12.994500 -0.242716 -4.980390 89.170100 9.432950 -84.949200 -5.348130 -0.000001 -0.000004 -53.167900 9.335690 -36.931700 -24.328900 0.000322 -0.000009 -20.586500 -1.515680 -85.971000 -22.291500 -0.000108 -0.000004 29.316000 5.610280 -11.976700 -2.192480 -6.469440 -0.000000 -178.309000 -8.260870 -30.111300 39.081100 -0.000007 -0.000012 0.048679 -0.021530 66.135000 40.985400 -0.000006 -0.000013 2.824410 0.678920 -66.472100 11.754300 -0.000000 0.000003 -0.003399 -0.045049 -18.409000 -2.192510 6.469440 -0.000001 -179.386000 17.346700 163.901000 -39.081100 -0.002282 -0.040193 0.032209 -0.027664 46.299400 -40.985400 0.000008 0.000006 8.729560 1.395280 -78.918500 -11.754300 -0.000006 -0.000006 -1.215570 -1.478670 -18.066200
